<svg width="124" height="42" viewBox="0 0 124 42" fill="none" xmlns="http://www.w3.org/2000/svg">
<g id="Logo White">
<path id="Vector" d="M28.0742 35.5588V12.5184H37.058C38.3446 12.4832 39.629 12.6437 40.8674 12.9946C41.9254 13.3515 42.8374 14.045 43.4641 14.9691C44.2057 15.9944 44.5914 17.2341 44.5625 18.4991C44.5872 19.6992 44.1945 20.8706 43.4514 21.8133C42.682 22.7687 41.5884 23.4081 40.3785 23.61C41.8078 23.7905 43.1197 24.4939 44.0609 25.5846C44.9024 26.6254 45.3518 27.9287 45.3307 29.267C45.3528 30.0927 45.2097 30.9146 44.9099 31.6843C44.6101 32.454 44.1595 33.1561 43.5847 33.7493C42.4229 34.9556 40.6261 35.5588 38.2071 35.5588H28.0742ZM31.9788 22.1942H37.058C37.5011 22.2253 37.9457 22.162 38.3625 22.0087C38.7794 21.8554 39.159 21.6154 39.4764 21.3047C39.7938 20.9939 40.0416 20.6194 40.2037 20.2059C40.3657 19.7923 40.4383 19.3491 40.4166 18.9055C40.4512 18.4605 40.3755 18.0138 40.1961 17.6051C40.0167 17.1964 39.7391 16.8384 39.388 16.5627C38.6865 16.0577 37.8397 15.7947 36.9755 15.8135H31.9788V22.1942ZM31.9788 32.0986H37.3501C38.3272 32.1513 39.2883 31.8339 40.042 31.2097C40.3591 30.8957 40.6109 30.5219 40.7826 30.11C40.9544 29.698 41.0429 29.2561 41.0429 28.8098C41.0429 28.3635 40.9544 27.9216 40.7826 27.5097C40.6109 27.0978 40.3591 26.724 40.042 26.4099C39.3102 25.7699 38.3593 25.4377 37.3881 25.483H31.9788V32.0986Z" fill="white"/>
<path id="Vector_2" d="M51.304 16.5194H47.4502V12.5195H51.304V16.5194ZM51.304 35.5662H47.4502V18.5129H51.304V35.5662Z" fill="white"/>
<path id="Vector_3" d="M61.1831 35.9142C58.6435 35.9142 56.7197 35.0085 55.4118 33.1969C54.0858 31.3938 53.3857 29.2065 53.4183 26.9686C53.3409 24.6697 54.1268 22.4252 55.6214 20.6768C56.3395 19.846 57.2347 19.1867 58.2411 18.7472C59.2475 18.3077 60.3395 18.0993 61.437 18.1372C62.4979 18.1082 63.5522 18.3127 64.5253 18.7362C65.4985 19.1597 66.3667 19.7918 67.0685 20.5879C68.5789 22.3494 69.364 24.6186 69.2653 26.9368C69.2653 29.6288 68.5097 31.7938 66.9796 33.4255C66.2464 34.227 65.3492 34.8614 64.349 35.2853C63.3487 35.7093 62.269 35.913 61.1831 35.8825V35.9142ZM61.3164 32.708C63.9068 32.708 65.2019 30.7801 65.2019 26.9241C65.2752 25.4897 64.9546 24.0626 64.275 22.7973C63.9818 22.3089 63.5607 21.9099 63.0571 21.6436C62.5535 21.3772 61.9867 21.2537 61.418 21.2863C60.8309 21.2524 60.2457 21.3794 59.7255 21.6535C59.2053 21.9276 58.7697 22.3384 58.4657 22.8418C57.7679 24.1083 57.4339 25.5431 57.5007 26.9876C57.5007 28.85 57.8414 30.2679 58.5228 31.2414C58.8243 31.7042 59.2394 32.0821 59.7285 32.3388C60.2175 32.5956 60.7642 32.7227 61.3164 32.708Z" fill="white"/>
<path id="Vector_4" d="M98.801 30.1248L102.28 30.601C101.841 32.1241 100.916 33.4618 99.6454 34.4104C98.2239 35.4461 96.4953 35.9738 94.7377 35.9087C93.6694 35.9516 92.6046 35.7608 91.6177 35.3496C90.6307 34.9383 89.7454 34.3166 89.0236 33.5279C87.5845 31.9448 86.865 29.7968 86.865 27.0837C86.7779 24.755 87.5534 22.4762 89.0427 20.6839C89.7718 19.843 90.6816 19.1778 91.7041 18.738C92.7266 18.2982 93.8353 18.0953 94.9472 18.1444C96.0176 18.0874 97.0863 18.2844 98.0661 18.7191C99.0459 19.1538 99.909 19.814 100.585 20.6458C101.971 22.4887 102.675 24.7546 102.579 27.0583V27.4964H90.8712C90.8421 28.4367 90.9534 29.376 91.2014 30.2835C91.4384 31.0116 91.8953 31.6482 92.5092 32.1057C93.0296 32.4803 93.6303 32.7281 94.2634 32.8294C94.8965 32.9306 95.5445 32.8825 96.1557 32.6888C96.767 32.4952 97.3245 32.1613 97.7837 31.714C98.243 31.2666 98.5914 30.718 98.801 30.1121V30.1248ZM98.5661 25.033C98.5974 23.9272 98.2018 22.8518 97.4614 22.0299C97.1188 21.6692 96.7076 21.3806 96.2519 21.181C95.7962 20.9815 95.3051 20.875 94.8077 20.8679C94.3103 20.8608 93.8164 20.9532 93.3552 21.1397C92.894 21.3261 92.4747 21.6029 92.1219 21.9537C91.3513 22.7999 90.9019 23.8896 90.8521 25.033H98.5661Z" fill="white"/>
<path id="Vector_5" d="M118.826 35.5593H114.972V24.9121C115.043 23.9982 114.767 23.0912 114.198 22.3725C113.964 22.0976 113.671 21.8785 113.342 21.7313C113.012 21.5841 112.654 21.5125 112.293 21.5218C111.783 21.5286 111.282 21.6504 110.826 21.8779C110.369 22.1055 109.97 22.4329 109.658 22.836C108.909 23.7121 108.528 25.0327 108.528 26.8041V35.5593H104.681V18.5124H108.192V22.4614C109.415 19.5917 111.138 18.1568 113.36 18.1568C114.763 18.1368 116.122 18.6444 117.169 19.579C118.231 20.5271 118.763 22.1863 118.763 24.5566L118.826 35.5593Z" fill="white"/>
<path id="Vector_6" d="M85.4939 32.7728C84.3527 31.8188 82.8899 31.3373 81.4052 31.4268H76.326C75.6989 31.4734 75.0767 31.2856 74.5801 30.8998C74.4056 30.7607 74.2636 30.5853 74.1638 30.3857C74.0641 30.1862 74.009 29.9673 74.0023 29.7443C74.0006 29.376 74.1141 29.0163 74.327 28.7157C74.5399 28.4152 74.8415 28.1887 75.1896 28.0682C76.2271 28.3372 77.2925 28.4842 78.364 28.5063C80.1778 28.6033 81.9701 28.0768 83.4432 27.0143C84.0381 26.5857 84.5216 26.0208 84.853 25.3668C85.1844 24.7128 85.3541 23.9888 85.3479 23.2557C85.3327 22.2006 84.9253 21.1889 84.2051 20.4177L86.6621 20.2018L86.1098 16.9258L81.4687 18.4876C80.3814 18.255 79.2728 18.1358 78.1609 18.1321C75.7864 18.1321 74.0193 18.6337 72.8595 19.6368C72.3129 20.0736 71.872 20.6282 71.5697 21.2592C71.2674 21.8903 71.1115 22.5814 71.1136 23.2811C71.1071 24.0967 71.3253 24.8984 71.7441 25.5983C72.1629 26.2982 72.7663 26.8693 73.4881 27.2492C71.6638 28.1338 70.7538 29.321 70.758 30.8109C70.758 31.795 71.285 32.7156 72.3516 33.6426C70.6882 34.4298 69.8564 35.5917 69.8564 37.1154C69.8564 40.201 72.6204 41.7438 78.1482 41.7438C81.0814 41.7438 83.2993 41.2126 84.8019 40.1502C85.4834 39.723 86.046 39.1307 86.4378 38.4282C86.8296 37.7257 87.0377 36.9357 87.043 36.1313C87.0548 35.499 86.9279 34.8717 86.6712 34.2937C86.4146 33.7156 86.0344 33.2008 85.5574 32.7854L85.4939 32.7728ZM75.9515 21.3573C76.2725 21.0734 76.6463 20.8555 77.0515 20.7161C77.4568 20.5767 77.8855 20.5184 78.3132 20.5447C78.729 20.5153 79.1465 20.5692 79.5412 20.7033C79.9359 20.8374 80.2998 21.049 80.6116 21.3256C80.8661 21.5723 81.0674 21.8686 81.2028 22.1963C81.3382 22.5239 81.405 22.8758 81.3989 23.2303C81.3989 25.2027 80.3407 26.191 78.2244 26.1952C77.382 26.2441 76.5535 25.9642 75.9134 25.4143C75.6396 25.1535 75.4244 24.8375 75.2822 24.4873C75.1399 24.137 75.0737 23.7605 75.088 23.3827C75.0788 23.0034 75.1485 22.6264 75.2928 22.2756C75.4371 21.9247 75.6527 21.6077 75.926 21.3447L75.9515 21.3573ZM78.9672 39.0582C76.9419 39.0582 75.4689 38.7662 74.5229 38.1694C73.577 37.5726 73.1325 36.8996 73.1325 36.1123C73.1612 35.8225 73.2499 35.5418 73.3931 35.2882C73.5363 35.0345 73.7308 34.8136 73.9642 34.6393C74.8701 34.8944 75.8043 35.0352 76.7451 35.0584H80.8465C81.4662 35.0482 82.0782 35.1969 82.6242 35.4901C82.8615 35.6058 83.0609 35.7866 83.1992 36.0115C83.3375 36.2364 83.4089 36.4959 83.4051 36.7599C83.4051 38.2836 81.9237 39.0455 78.9608 39.0455" fill="white"/>
<path id="Vector_7" d="M122.445 32.4785C122.752 32.4773 123.052 32.5671 123.308 32.7365C123.563 32.906 123.763 33.1475 123.881 33.4304C123.999 33.7134 124.031 34.0251 123.972 34.326C123.913 34.6269 123.766 34.9035 123.549 35.1208C123.333 35.3381 123.057 35.4863 122.756 35.5466C122.455 35.6069 122.144 35.5766 121.86 35.4595C121.577 35.3424 121.334 35.1439 121.164 34.889C120.993 34.6341 120.902 34.3343 120.902 34.0277C120.902 33.6179 121.065 33.2248 121.354 32.9345C121.643 32.6442 122.035 32.4802 122.445 32.4785ZM122.445 35.2911C122.696 35.2911 122.942 35.2166 123.151 35.0771C123.359 34.9376 123.522 34.7393 123.618 34.5073C123.714 34.2752 123.74 34.0199 123.691 33.7736C123.642 33.5273 123.521 33.301 123.343 33.1234C123.165 32.9459 122.939 32.8249 122.693 32.7759C122.447 32.7269 122.191 32.7521 121.959 32.8482C121.727 32.9443 121.529 33.1071 121.389 33.3159C121.25 33.5247 121.175 33.7702 121.175 34.0213C121.175 34.3581 121.309 34.6811 121.547 34.9192C121.785 35.1573 122.108 35.2911 122.445 35.2911ZM122.147 34.853H121.798V33.196H122.566C122.661 33.196 123.201 33.196 123.201 33.6912C123.204 33.789 123.176 33.8853 123.119 33.9654C123.063 34.0456 122.983 34.1053 122.89 34.1356L123.201 34.853H122.826L122.553 34.2181H122.134L122.147 34.853ZM122.147 33.9197H122.515C122.629 33.9197 122.826 33.9197 122.826 33.6848C122.826 33.5896 122.763 33.469 122.54 33.469H122.134L122.147 33.9197Z" fill="white"/>
<g id="Group 1081">
<path id="Vector_8" d="M15.4024 14.9766C15.1039 15.2326 14.895 15.3832 14.895 15.3832C11.4205 17.9708 6.97598 19.2239 6.97598 19.2239L6.26855 19.4257C7.38995 20.5482 8.73851 21.4129 10.2219 21.9605C11.7052 22.5081 13.2884 22.7257 14.8628 22.5984C16.4373 22.4711 17.9659 22.0019 19.3439 21.2229C20.722 20.4439 21.9169 19.3736 22.8469 18.0852C20.8559 18.7991 18.0859 17.3412 15.4024 14.9766Z" fill="url(#paint0_linear_2628_28892)"/>
<path id="Vector_9" d="M24.9332 10.8977C24.9332 10.8314 24.9332 10.7651 24.9332 10.6988C24.9212 10.5382 24.9063 10.3785 24.8884 10.2199L24.8615 10.0181C24.8377 9.83733 24.8078 9.65961 24.775 9.47887C24.775 9.44574 24.775 9.40959 24.7541 9.37345C24.7123 9.15957 24.6615 8.94872 24.6078 8.73786C24.6078 8.68966 24.581 8.64147 24.566 8.59327C24.5242 8.43362 24.4765 8.27397 24.4228 8.11733C24.4048 8.05407 24.381 7.99082 24.3601 7.92756C24.3093 7.77695 24.2556 7.62633 24.1959 7.48476L24.1332 7.31908C24.0526 7.12931 23.972 6.93954 23.8825 6.75579C23.8556 6.69554 23.8228 6.63831 23.7929 6.57806C23.7332 6.45757 23.6705 6.33708 23.6049 6.2196C23.587 6.18346 23.5661 6.15032 23.5482 6.11719C22.6199 7.97575 20.02 9.59635 16.8977 10.8013C17.0637 11.4891 17.0637 12.207 16.8977 12.8948C16.6351 13.7714 15.9008 14.5365 15.4053 14.9763C18.0917 17.3409 20.8587 18.7988 22.8527 18.0849C23.245 17.5489 23.5887 16.9783 23.8795 16.38C23.9034 16.3318 23.9243 16.2806 23.9481 16.2294L24.0825 15.9281C24.1213 15.8348 24.1571 15.7384 24.1959 15.642C24.2347 15.5456 24.2407 15.5275 24.2646 15.4673C24.3063 15.3558 24.3451 15.2413 24.3839 15.1269C24.3839 15.0847 24.4138 15.0425 24.4257 15.0004C24.4675 14.8738 24.5063 14.7473 24.5421 14.6208C24.5421 14.5907 24.5421 14.5636 24.563 14.5365C24.6946 14.0751 24.7943 13.605 24.8615 13.1297C24.8615 13.0966 24.8615 13.0635 24.8615 13.0303C24.8854 12.8345 24.9063 12.6357 24.9212 12.4279C24.9212 12.3737 24.9212 12.3164 24.9212 12.2592C24.9212 12.0273 24.9481 11.7923 24.9481 11.5543C24.9481 11.3164 24.9481 11.1206 24.9332 10.8977Z" fill="url(#paint1_linear_2628_28892)"/>
<path id="Vector_10" d="M23.1849 5.53955C23.1162 5.43111 23.0416 5.32267 22.967 5.21724C22.8446 5.03952 22.7162 4.86481 22.5819 4.69612L22.4297 4.50032C22.3252 4.37682 22.2207 4.25332 22.1133 4.13283L22.0894 4.11475C20.7148 2.59287 18.9468 1.48808 16.9842 0.924546C15.0216 0.361015 12.9421 0.36109 10.9795 0.924763C11.5765 1.58746 12.0242 2.10858 12.0242 2.10858C12.0242 2.10858 15.0629 5.62088 16.5733 9.69648C16.7121 10.0552 16.8209 10.425 16.8986 10.802C20.0208 9.59707 22.6207 7.97647 23.5341 6.11791C23.4247 5.92311 23.3083 5.73033 23.1849 5.53955Z" fill="url(#paint2_linear_2628_28892)"/>
<path id="Vector_11" d="M16.8983 10.803C16.8206 10.426 16.7118 10.0562 16.573 9.69749C15.0626 5.6219 12.0239 2.1096 12.0239 2.1096C12.0239 2.1096 11.5702 1.58848 10.9792 0.925781C10.8479 0.964941 10.7165 1.0041 10.5882 1.04928L10.5315 1.06736C10.4031 1.10953 10.2777 1.15471 10.1524 1.20291L10.1136 1.21797C9.71752 1.3704 9.33079 1.54643 8.95541 1.74512H8.93751L8.65692 1.90778L8.49872 2.00718L8.25694 2.15177L8.08083 2.26323L7.8689 2.4048L7.66592 2.54638L7.48384 2.67892L7.22117 2.88074L7.11073 2.9681C6.98536 3.07051 6.86298 3.17293 6.74358 3.26932L6.66597 3.3386L6.38539 3.60368L6.34957 3.63682C4.92804 5.02912 3.90723 6.78436 3.3958 8.71569C2.88436 10.647 2.90145 12.6822 3.44523 14.6045C3.44523 14.6045 3.44523 14.6045 3.44523 14.6225C3.64384 15.3199 3.90978 15.9959 4.23922 16.6408L4.27206 16.704C4.32877 16.8155 4.39146 16.9269 4.45414 17.0384C4.45414 17.0625 4.48399 17.0896 4.49891 17.1167C4.5616 17.2251 4.62428 17.3336 4.68995 17.442L4.71383 17.4782C4.92129 17.8086 5.14649 18.1274 5.38842 18.4331C5.41827 18.4752 5.44812 18.5144 5.48096 18.5535C5.51379 18.5927 5.60632 18.7072 5.67199 18.7825L5.79736 18.9271L5.98242 19.1349L6.13465 19.2916L6.26599 19.4301L6.97044 19.2283C6.97044 19.2283 11.421 17.9722 14.8954 15.3846C14.8954 15.3846 15.1103 15.234 15.4029 14.978C15.9103 14.5382 16.6446 13.7731 16.8953 12.8965C17.0622 12.209 17.0633 11.491 16.8983 10.803Z" fill="url(#paint3_radial_2628_28892)"/>
<path id="Vector_12" d="M6.95833 0.914062C6.95833 0.914062 1.92275 3.21242 0.421331 8.2911C-1.08009 13.3698 1.9138 18.0297 1.9138 18.0297C1.9138 18.0297 6.35537 16.7676 9.82983 14.1891C9.82983 14.1891 11.4298 13.0866 11.8417 11.701C12.2446 10.3123 11.5044 8.50798 11.5044 8.50798C9.99401 4.41733 6.95833 0.914062 6.95833 0.914062Z" fill="url(#paint4_radial_2628_28892)"/>
</g>
</g>
<defs>
<linearGradient id="paint0_linear_2628_28892" x1="10.7489" y1="14.9073" x2="18.5383" y2="22.626" gradientUnits="userSpaceOnUse">
<stop offset="0.17" stop-color="#ECF1C5"/>
<stop offset="0.74" stop-color="#DBE2A1"/>
</linearGradient>
<linearGradient id="paint1_linear_2628_28892" x1="25.0585" y1="13.2322" x2="17.0599" y2="10.3481" gradientUnits="userSpaceOnUse">
<stop stop-color="#DBE2A1"/>
<stop offset="0.27" stop-color="#C9D788"/>
<stop offset="0.55" stop-color="#BBCE75"/>
<stop offset="0.74" stop-color="#B6CB6E"/>
</linearGradient>
<linearGradient id="paint2_linear_2628_28892" x1="21.3402" y1="8.95245" x2="11.2685" y2="0.5784" gradientUnits="userSpaceOnUse">
<stop stop-color="#B5CA6D"/>
<stop offset="0.09" stop-color="#A3C067"/>
<stop offset="0.29" stop-color="#84AE5D"/>
<stop offset="0.46" stop-color="#71A356"/>
<stop offset="0.58" stop-color="#6A9F54"/>
</linearGradient>
<radialGradient id="paint3_radial_2628_28892" cx="0" cy="0" r="1" gradientUnits="userSpaceOnUse" gradientTransform="translate(10.027 10.1764) scale(8.15782 8.23252)">
<stop offset="0.17" stop-color="#3A5C7B"/>
<stop offset="1" stop-color="#5B89B4"/>
</radialGradient>
<radialGradient id="paint4_radial_2628_28892" cx="0" cy="0" r="1" gradientUnits="userSpaceOnUse" gradientTransform="translate(3.55288 6.1717) rotate(-83.5882) scale(12.5958 7.39159)">
<stop stop-color="#E6F1F7"/>
<stop offset="0.09" stop-color="#D1E3F0"/>
<stop offset="0.28" stop-color="#ABC8E3"/>
<stop offset="0.47" stop-color="#8DB4D8"/>
<stop offset="0.65" stop-color="#78A5D1"/>
<stop offset="0.83" stop-color="#6B9CCC"/>
<stop offset="1" stop-color="#6799CB"/>
</radialGradient>
</defs>
</svg>
